<svg width="244" height="249" viewBox="0 0 244 249" fill="none" xmlns="http://www.w3.org/2000/svg">
<g clip-path="url(#clip0)">
<path fill-rule="evenodd" clip-rule="evenodd" d="M56.2757 36.3199C55.2387 38.9123 53.6833 80.1743 53.0352 100.481C45.6901 108.258 31 124.979 31 129.645C31 134.312 45.6901 150.168 53.0352 157.514C56.2757 160.106 63.4047 165.031 65.9971 163.994C69.2376 162.698 82.1994 154.921 86.7361 159.458C91.2728 163.994 102.29 193.159 102.29 193.159L121.085 196.399C124.573 196.535 141.267 193.159 141.267 193.159C141.267 193.159 152.284 163.994 156.821 159.458C161.357 154.921 174.319 162.698 177.56 163.994C180.152 165.031 187.281 160.106 190.522 157.514C190.714 156.621 190.9 155.756 191.079 154.921C198.424 148.872 213.114 135.349 213.114 129.645C213.114 123.942 198.424 107.826 191.079 100.481L187.839 36.3199C177.037 27.4626 148.564 10.0073 121.085 11.0442C86.7361 12.3404 57.5719 33.0794 56.2757 36.3199ZM72.478 100.481L58.22 114.739C64.2688 122.948 77.1443 139.496 80.2552 140.015C83.366 140.533 98.4018 128.133 105.531 121.868L96.4575 105.018L72.478 100.481ZM174.319 100.481L188.577 114.739C182.529 122.948 169.653 139.496 166.542 140.015C163.431 140.533 148.396 128.133 141.267 121.868L150.34 105.018L174.319 100.481ZM116.548 132.238C118.622 132.238 120.437 137.423 121.085 140.015H124.326C125.622 136.558 128.473 130.164 129.51 132.238C130.807 134.83 137.287 159.458 136.639 162.05C136.121 164.124 126.054 164.21 121.085 163.994C117.413 163.994 109.808 163.606 108.771 162.05C107.475 160.106 113.956 132.238 116.548 132.238Z" fill="#606060"/>
<path d="M141.267 232.692C144.27 228.688 185.135 182.474 190.522 157.514C187.281 160.106 180.152 165.031 177.56 163.994C169.969 180.845 143.34 214.546 141.267 214.546C139.193 214.546 144.045 200.288 141.267 193.159C141.267 193.159 124.573 196.535 121.085 196.399L102.29 193.159C99.914 200.504 104.883 215.064 102.29 214.546C99.698 214.027 73.5582 180.629 65.9971 163.994C63.4047 165.031 56.2757 160.106 53.0352 157.514C58.436 181.277 99.698 229.582 102.29 232.692C105.531 236.581 115 237.877 121.085 237.877C126.31 237.877 137.378 237.877 141.267 232.692Z" fill="#606060"/>
<path d="M191.079 154.921C198.424 148.872 213.114 135.349 213.114 129.645C213.114 123.942 198.424 107.826 191.079 100.481L187.839 36.3199C177.037 27.4626 148.564 10.0073 121.085 11.0442C86.7361 12.3404 57.5719 33.0794 56.2757 36.3199C55.2387 38.9123 53.6833 80.1743 53.0352 100.481C45.6901 108.258 31 124.979 31 129.645C31 134.312 45.6901 150.168 53.0352 157.514M191.079 154.921C185.895 179.117 144.377 228.545 141.267 232.692M191.079 154.921C190.9 155.756 190.714 156.621 190.522 157.514M141.267 232.692C137.378 237.877 126.31 237.877 121.085 237.877C115 237.877 105.531 236.581 102.29 232.692C99.698 229.582 58.436 181.277 53.0352 157.514M141.267 232.692C144.27 228.688 185.135 182.474 190.522 157.514M53.0352 157.514C56.2757 160.106 63.4047 165.031 65.9971 163.994M190.522 157.514C187.281 160.106 180.152 165.031 177.56 163.994M177.56 163.994C174.319 162.698 161.357 154.921 156.821 159.458C152.284 163.994 141.267 193.159 141.267 193.159M177.56 163.994C169.969 180.845 143.34 214.546 141.267 214.546C139.193 214.546 144.045 200.288 141.267 193.159M141.267 193.159C141.267 193.159 124.573 196.535 121.085 196.399L102.29 193.159M65.9971 163.994C69.2376 162.698 82.1994 154.921 86.7361 159.458C91.2728 163.994 102.29 193.159 102.29 193.159M65.9971 163.994C73.5582 180.629 99.698 214.027 102.29 214.546C104.883 215.064 99.914 200.504 102.29 193.159M58.22 114.739L72.478 100.481L96.4575 105.018L105.531 121.868C98.4018 128.133 83.366 140.533 80.2552 140.015C77.1443 139.496 64.2688 122.948 58.22 114.739ZM188.577 114.739L174.319 100.481L150.34 105.018L141.267 121.868C148.396 128.133 163.431 140.533 166.542 140.015C169.653 139.496 182.529 122.948 188.577 114.739ZM121.085 140.015C120.437 137.423 118.622 132.238 116.548 132.238C113.956 132.238 107.475 160.106 108.771 162.05C109.808 163.606 117.413 163.994 121.085 163.994C126.054 164.21 136.121 164.124 136.639 162.05C137.287 159.458 130.807 134.83 129.51 132.238C128.473 130.164 125.622 136.558 124.326 140.015H121.085Z" stroke="black"/>
<path fill-rule="evenodd" clip-rule="evenodd" d="M191.079 154.921C190.909 155.714 190.733 156.534 190.551 157.379L191.079 154.921C190.9 155.756 191.272 154.029 191.079 154.921Z" fill="#0F0F0F"/>
<path d="M86.7361 159.458C82.1994 154.921 69.2376 162.698 65.9971 163.994C73.5582 180.629 99.698 214.027 102.29 214.546C104.883 215.064 99.914 200.504 102.29 193.159C102.29 193.159 91.2728 163.994 86.7361 159.458Z" fill="#0F0F0F"/>
<path d="M121.085 140.015C120.437 137.423 118.622 132.238 116.548 132.238C113.956 132.238 107.475 160.106 108.771 162.05C109.808 163.606 117.413 163.994 121.085 163.994C126.054 164.21 136.121 164.124 136.639 162.05C137.287 159.458 130.807 134.83 129.51 132.238C128.473 130.164 125.622 136.558 124.326 140.015H121.085Z" fill="#0F0F0F"/>
<path d="M58.22 114.739L72.478 100.481L96.4575 105.018L105.531 121.868C98.4018 128.133 83.366 140.533 80.2552 140.015C77.1443 139.496 64.2688 122.948 58.22 114.739Z" fill="#0F0F0F"/>
<path d="M188.577 114.739L174.319 100.481L150.34 105.018L141.267 121.868C148.396 128.133 163.431 140.533 166.542 140.015C169.653 139.496 182.529 122.948 188.577 114.739Z" fill="#0F0F0F"/>
<path d="M177.56 163.994C174.319 162.698 161.357 154.921 156.821 159.458C152.284 163.994 141.267 193.159 141.267 193.159C144.045 200.288 139.193 214.546 141.267 214.546C143.34 214.546 169.969 180.845 177.56 163.994Z" fill="#0F0F0F"/>
<path d="M191.079 154.921C198.424 148.872 213.114 135.349 213.114 129.645C213.114 123.942 198.424 107.826 191.079 100.481L187.839 36.3199C177.037 27.4626 148.564 10.0073 121.085 11.0442C86.7361 12.3404 57.5719 33.0794 56.2757 36.3199C55.2387 38.9123 53.6833 80.1743 53.0352 100.481C45.6901 108.258 31 124.979 31 129.645C31 134.312 45.6901 150.168 53.0352 157.514M191.079 154.921C187.839 157.514 180.152 165.031 177.56 163.994M191.079 154.921C185.692 179.882 144.27 228.688 141.267 232.692M191.079 154.921C190.909 155.714 190.733 156.534 190.551 157.379M191.079 154.921L190.551 157.379M191.079 154.921C191.272 154.029 190.9 155.756 191.079 154.921ZM191.079 154.921C191.089 154.876 190.541 157.424 190.551 157.379M141.267 232.692C137.378 237.877 127 237.877 121.085 237.877C115.86 237.877 105.531 236.581 102.29 232.692C99.698 229.582 58.436 181.277 53.0352 157.514M141.267 232.692C144.275 228.681 185.172 182.308 190.551 157.379M53.0352 157.514C56.2757 160.106 63.4047 165.031 65.9971 163.994M177.56 163.994C174.319 162.698 161.357 154.921 156.821 159.458C152.284 163.994 141.267 193.159 141.267 193.159M177.56 163.994C169.969 180.845 143.34 214.546 141.267 214.546C139.193 214.546 144.045 200.288 141.267 193.159M141.267 193.159C141.267 193.159 124.573 196.535 121.085 196.399L102.29 193.159M65.9971 163.994C69.2376 162.698 82.1994 154.921 86.7361 159.458C91.2728 163.994 102.29 193.159 102.29 193.159M65.9971 163.994C73.5582 180.629 99.698 214.027 102.29 214.546C104.883 215.064 99.914 200.504 102.29 193.159M58.22 114.739L72.478 100.481L96.4575 105.018L105.531 121.868C98.4018 128.133 83.366 140.533 80.2552 140.015C77.1443 139.496 64.2688 122.948 58.22 114.739ZM188.577 114.739L174.319 100.481L150.34 105.018L141.267 121.868C148.396 128.133 163.431 140.533 166.542 140.015C169.653 139.496 182.529 122.948 188.577 114.739ZM121.085 140.015C120.437 137.423 118.622 132.238 116.548 132.238C113.956 132.238 107.475 160.106 108.771 162.05C109.808 163.606 117.413 163.994 121.085 163.994C126.054 164.21 136.121 164.124 136.639 162.05C137.287 159.458 130.807 134.83 129.51 132.238C128.473 130.164 125.622 136.558 124.326 140.015H121.085Z" stroke="black" stroke-width="3"/>
<path d="M166.362 134.113L147.671 121.03L154.454 109.314L172.126 106.158L181.968 115.385L166.362 134.113Z" fill="#9D0011" stroke="#EA0000" stroke-linejoin="round"/>
<path d="M80.9931 134.113L99.6835 121.03L92.9006 109.314L75.2294 106.158L65.3869 115.385L80.9931 134.113Z" fill="#9D0011" stroke="#EA0000" stroke-linejoin="round"/>
<path d="M80 141.5C77 138.833 70.3 132.6 67.5 129C64.7 125.4 59.3333 118.167 57 115C58.3333 119.167 62.3 128.9 67.5 134.5C72.7 140.1 75 141.5 80 141.5C85 141.5 93 136.5 93 136.5L106.5 123L93 132.5L80 141.5Z" fill="#868686"/>
<path d="M99.5 65L110 87H135.5L145.5 65L133 82.5H113L99.5 65Z" fill="#868686"/>
<path d="M56 58.5L61.5 40C72.8333 32.8333 100.5 18.8 120.5 20C140.5 21.2 168.167 33.8333 179.5 40L187 58.5V38C176.333 29.5 148.1 12.5 120.5 12.5C92.9 12.5 66 29.5 56 38V58.5Z" fill="#868686"/>
<path d="M179.5 129C176.7 132.6 170 138.833 167 141.5C172 141.5 174.3 140.1 179.5 134.5C184.7 128.9 188.667 119.167 190 115C187.667 118.167 182.3 125.4 179.5 129Z" fill="#868686"/>
<path d="M154 136.5C154 136.5 162 141.5 167 141.5L154 132.5L140.5 123L154 136.5Z" fill="#868686"/>
<path d="M99.5 179.5L106.5 187.5C108.333 188.167 113.7 189.5 120.5 189.5C127.3 189.5 134.667 188.167 137.5 187.5L145.5 177L140.5 191.5C137.167 193.333 129.1 195 123.5 195C117.9 195 107.167 192.667 102.5 191.5L99.5 179.5Z" fill="#868686"/>
<path d="M123.5 139.5C119.5 139.5 116.5 129 116.5 129L123.5 120.5L129 129C129 129 127.5 139.5 123.5 139.5Z" fill="#868686"/>
<path d="M189 101L204.5 123C205.5 126.833 206.9 135.5 204.5 139.5C201.5 144.5 212.5 132 211.5 129C210.7 126.6 196.167 109.333 189 101Z" fill="#868686"/>
<path d="M55 101L39.5 123C38.5 126.833 37.1 135.5 39.5 139.5C42.5 144.5 31.5 132 32.5 129C33.3 126.6 47.8333 109.333 55 101Z" fill="#868686"/>
</g>
<defs>
<clipPath id="clip0">
<rect width="244" height="249" fill="white"/>
</clipPath>
</defs>
</svg>
